<mxfile host="app.diagrams.net" modified="2023-05-10T23:24:49.083Z" agent="Mozilla/5.0 (Windows NT 10.0; Win64; x64) AppleWebKit/537.36 (KHTML, like Gecko) Chrome/113.0.0.0 Safari/537.36" etag="Dc8OtkSW9ET0AOAKyFIZ" version="21.2.8" type="device" pages="2">
  <diagram name="site map" id="4vNA2XEI-aeJOlkPYM_L">
    <mxGraphModel dx="3180" dy="1200" grid="1" gridSize="10" guides="1" tooltips="1" connect="1" arrows="1" fold="1" page="1" pageScale="1" pageWidth="827" pageHeight="1169" math="0" shadow="0">
      <root>
        <mxCell id="0" />
        <mxCell id="1" parent="0" />
        <mxCell id="5uTDyabXK8NrestarS3i-10" value="" style="rounded=0;whiteSpace=wrap;html=1;strokeColor=none;" vertex="1" parent="1">
          <mxGeometry x="-20" y="220" width="560" height="320" as="geometry" />
        </mxCell>
        <mxCell id="5uTDyabXK8NrestarS3i-6" style="edgeStyle=orthogonalEdgeStyle;rounded=0;orthogonalLoop=1;jettySize=auto;html=1;" edge="1" parent="1" source="5uTDyabXK8NrestarS3i-1" target="5uTDyabXK8NrestarS3i-2">
          <mxGeometry relative="1" as="geometry">
            <Array as="points">
              <mxPoint x="300" y="300" />
              <mxPoint x="140" y="300" />
            </Array>
          </mxGeometry>
        </mxCell>
        <mxCell id="5uTDyabXK8NrestarS3i-7" style="edgeStyle=orthogonalEdgeStyle;rounded=0;orthogonalLoop=1;jettySize=auto;html=1;" edge="1" parent="1" source="5uTDyabXK8NrestarS3i-1" target="5uTDyabXK8NrestarS3i-3">
          <mxGeometry relative="1" as="geometry" />
        </mxCell>
        <mxCell id="5uTDyabXK8NrestarS3i-12" style="edgeStyle=orthogonalEdgeStyle;rounded=0;orthogonalLoop=1;jettySize=auto;html=1;exitX=0.5;exitY=1;exitDx=0;exitDy=0;" edge="1" parent="1" source="5uTDyabXK8NrestarS3i-1" target="5uTDyabXK8NrestarS3i-11">
          <mxGeometry relative="1" as="geometry">
            <Array as="points">
              <mxPoint x="300" y="300" />
              <mxPoint x="460" y="300" />
            </Array>
          </mxGeometry>
        </mxCell>
        <mxCell id="5uTDyabXK8NrestarS3i-1" value="Головна" style="rounded=0;whiteSpace=wrap;html=1;" vertex="1" parent="1">
          <mxGeometry x="240" y="240" width="120" height="40" as="geometry" />
        </mxCell>
        <mxCell id="5uTDyabXK8NrestarS3i-8" style="edgeStyle=orthogonalEdgeStyle;rounded=0;orthogonalLoop=1;jettySize=auto;html=1;entryX=0.5;entryY=0;entryDx=0;entryDy=0;" edge="1" parent="1" source="5uTDyabXK8NrestarS3i-2" target="5uTDyabXK8NrestarS3i-4">
          <mxGeometry relative="1" as="geometry" />
        </mxCell>
        <mxCell id="5uTDyabXK8NrestarS3i-9" style="edgeStyle=orthogonalEdgeStyle;rounded=0;orthogonalLoop=1;jettySize=auto;html=1;" edge="1" parent="1" source="5uTDyabXK8NrestarS3i-2" target="5uTDyabXK8NrestarS3i-5">
          <mxGeometry relative="1" as="geometry" />
        </mxCell>
        <mxCell id="5uTDyabXK8NrestarS3i-2" value="Статті" style="rounded=0;whiteSpace=wrap;html=1;" vertex="1" parent="1">
          <mxGeometry x="80" y="320" width="120" height="40" as="geometry" />
        </mxCell>
        <mxCell id="5uTDyabXK8NrestarS3i-3" value="Про нас" style="rounded=0;whiteSpace=wrap;html=1;" vertex="1" parent="1">
          <mxGeometry x="240" y="320" width="120" height="40" as="geometry" />
        </mxCell>
        <mxCell id="5uTDyabXK8NrestarS3i-14" style="edgeStyle=orthogonalEdgeStyle;rounded=0;orthogonalLoop=1;jettySize=auto;html=1;entryX=0.5;entryY=0;entryDx=0;entryDy=0;" edge="1" parent="1" source="5uTDyabXK8NrestarS3i-4" target="5uTDyabXK8NrestarS3i-13">
          <mxGeometry relative="1" as="geometry" />
        </mxCell>
        <mxCell id="5uTDyabXK8NrestarS3i-4" value="Кімнатні рослини" style="rounded=0;whiteSpace=wrap;html=1;" vertex="1" parent="1">
          <mxGeometry y="400" width="120" height="40" as="geometry" />
        </mxCell>
        <mxCell id="5uTDyabXK8NrestarS3i-5" value="&lt;div&gt;Cадові рослини&lt;/div&gt;" style="rounded=0;whiteSpace=wrap;html=1;" vertex="1" parent="1">
          <mxGeometry x="160" y="400" width="120" height="40" as="geometry" />
        </mxCell>
        <mxCell id="5uTDyabXK8NrestarS3i-11" value="Ефекти" style="rounded=0;whiteSpace=wrap;html=1;" vertex="1" parent="1">
          <mxGeometry x="400" y="320" width="120" height="40" as="geometry" />
        </mxCell>
        <mxCell id="5uTDyabXK8NrestarS3i-13" value="Антуріум" style="rounded=0;whiteSpace=wrap;html=1;" vertex="1" parent="1">
          <mxGeometry y="480" width="120" height="40" as="geometry" />
        </mxCell>
      </root>
    </mxGraphModel>
  </diagram>
  <diagram id="DiqvB-xc4Mwg94YgTuHl" name="Wireframes">
    <mxGraphModel dx="4118" dy="2100" grid="1" gridSize="10" guides="1" tooltips="1" connect="1" arrows="1" fold="1" page="1" pageScale="1" pageWidth="827" pageHeight="1169" math="0" shadow="0">
      <root>
        <mxCell id="0" />
        <mxCell id="1" parent="0" />
        <mxCell id="yKf-Bc6Nf9YdXX6TuUnc-90" value="" style="group" vertex="1" connectable="0" parent="1">
          <mxGeometry x="720" width="1200" height="960" as="geometry" />
        </mxCell>
        <mxCell id="yKf-Bc6Nf9YdXX6TuUnc-2" value="&lt;u&gt;Page1&lt;span style=&quot;white-space: pre;&quot;&gt;	&lt;/span&gt;&lt;span style=&quot;white-space: pre;&quot;&gt;	&lt;/span&gt;&lt;/u&gt;&lt;span style=&quot;border-color: var(--border-color);&quot;&gt;Page2&lt;span style=&quot;white-space: pre;&quot;&gt;	&lt;/span&gt;&lt;span style=&quot;white-space: pre;&quot;&gt;	&lt;/span&gt;&lt;/span&gt;&lt;span style=&quot;border-color: var(--border-color);&quot;&gt;Page3&lt;/span&gt;" style="rounded=0;whiteSpace=wrap;html=1;fontSize=20;" vertex="1" parent="yKf-Bc6Nf9YdXX6TuUnc-90">
          <mxGeometry x="320" width="880" height="70" as="geometry" />
        </mxCell>
        <mxCell id="yKf-Bc6Nf9YdXX6TuUnc-3" value="" style="rounded=0;whiteSpace=wrap;html=1;" vertex="1" parent="yKf-Bc6Nf9YdXX6TuUnc-90">
          <mxGeometry y="70" width="1200" height="820" as="geometry" />
        </mxCell>
        <mxCell id="yKf-Bc6Nf9YdXX6TuUnc-4" value="&lt;footer style=&quot;font-size: 16px;&quot; class=&quot;footer&quot;&gt;&lt;p class=&quot;footer__text&quot; style=&quot;font-size: 16px;&quot;&gt;Name YYYY&lt;/p&gt;&lt;/footer&gt;" style="rounded=0;whiteSpace=wrap;html=1;fontSize=16;" vertex="1" parent="yKf-Bc6Nf9YdXX6TuUnc-90">
          <mxGeometry y="890" width="1200" height="70" as="geometry" />
        </mxCell>
        <mxCell id="yKf-Bc6Nf9YdXX6TuUnc-5" value="Name" style="rounded=0;whiteSpace=wrap;html=1;fontSize=40;" vertex="1" parent="yKf-Bc6Nf9YdXX6TuUnc-90">
          <mxGeometry width="320" height="70" as="geometry" />
        </mxCell>
        <mxCell id="yKf-Bc6Nf9YdXX6TuUnc-7" value="&lt;h1 style=&quot;line-height: 90%;&quot;&gt;&lt;span style=&quot;font-weight: normal;&quot;&gt;&lt;font style=&quot;font-size: 16px;&quot;&gt;Lorem ipsum dolor sit amet, consectetur adipiscing elit. Proin ornare in ipsum sit amet tempus. Praesent bibendum sapien id nunc convallis malesuada. Suspendisse suscipit luctus orci. Aenean vehicula turpis ligula, sed dignissim lectus eleifend non. Aenean ligula nibh, sodales at velit in, eleifend suscipit urna. Proin et ipsum tortor.&lt;/font&gt;&lt;/span&gt;&lt;br&gt;&lt;/h1&gt;" style="text;html=1;strokeColor=none;fillColor=none;spacing=5;spacingTop=-20;whiteSpace=wrap;overflow=hidden;rounded=0;" vertex="1" parent="yKf-Bc6Nf9YdXX6TuUnc-90">
          <mxGeometry x="70" y="520" width="620" height="150" as="geometry" />
        </mxCell>
        <mxCell id="yKf-Bc6Nf9YdXX6TuUnc-8" value="&lt;h1 style=&quot;border-color: var(--border-color); line-height: 21.6px;&quot;&gt;&lt;font style=&quot;border-color: var(--border-color); font-size: 20px;&quot;&gt;Heading&lt;/font&gt;&lt;/h1&gt;&lt;div style=&quot;font-size: 16px;&quot;&gt;&lt;ul style=&quot;&quot;&gt;&lt;li style=&quot;&quot;&gt;Lorem ipsum dolor&lt;br&gt;&lt;/li&gt;&lt;li style=&quot;&quot;&gt;Lorem ipsum dolor&lt;br&gt;&lt;/li&gt;&lt;li style=&quot;&quot;&gt;Lorem ipsum dolor&lt;br&gt;&lt;/li&gt;&lt;li style=&quot;&quot;&gt;Lorem ipsum dolor&lt;br&gt;&lt;/li&gt;&lt;/ul&gt;&lt;/div&gt;" style="text;html=1;strokeColor=none;fillColor=none;spacing=5;spacingTop=-20;whiteSpace=wrap;overflow=hidden;rounded=0;" vertex="1" parent="yKf-Bc6Nf9YdXX6TuUnc-90">
          <mxGeometry x="60" y="340" width="790" height="150" as="geometry" />
        </mxCell>
        <mxCell id="yKf-Bc6Nf9YdXX6TuUnc-9" value="&lt;h1 style=&quot;line-height: 90%;&quot;&gt;&lt;font style=&quot;font-size: 20px;&quot;&gt;Heading&amp;nbsp;&lt;/font&gt;&lt;/h1&gt;&lt;h1 style=&quot;line-height: 90%;&quot;&gt;&lt;span style=&quot;font-weight: normal;&quot;&gt;&lt;font style=&quot;font-size: 16px;&quot;&gt;Lorem ipsum dolor sit amet, consectetur adipiscing elit. Proin ornare in ipsum sit amet tempus. Praesent bibendum sapien id nunc convallis malesuada. Suspendisse suscipit luctus orci. Aenean vehicula turpis ligula, sed dignissim lectus eleifend non. Aenean ligula nibh, sodales at velit in, eleifend suscipit urna. Proin et ipsum tortor. Praesent facilisis leo tempus, varius massa quis, ultrices tellus. Praesent facilisis et justo non consequat. Duis faucibus tincidunt risus convallis posuere.&lt;/font&gt;&lt;/span&gt;&lt;br&gt;&lt;/h1&gt;" style="text;html=1;strokeColor=none;fillColor=none;spacing=5;spacingTop=-20;whiteSpace=wrap;overflow=hidden;rounded=0;" vertex="1" parent="yKf-Bc6Nf9YdXX6TuUnc-90">
          <mxGeometry x="70" y="130" width="690" height="150" as="geometry" />
        </mxCell>
        <mxCell id="yKf-Bc6Nf9YdXX6TuUnc-13" value="" style="sketch=0;pointerEvents=1;shadow=0;dashed=0;html=1;strokeColor=none;fillColor=#191919;labelPosition=center;verticalLabelPosition=bottom;verticalAlign=top;outlineConnect=0;align=center;shape=mxgraph.office.concepts.video_play;" vertex="1" parent="yKf-Bc6Nf9YdXX6TuUnc-90">
          <mxGeometry x="790" y="310" width="335" height="190" as="geometry" />
        </mxCell>
        <mxCell id="yKf-Bc6Nf9YdXX6TuUnc-17" value="" style="group" vertex="1" connectable="0" parent="yKf-Bc6Nf9YdXX6TuUnc-90">
          <mxGeometry x="870" y="130" width="255" height="140" as="geometry" />
        </mxCell>
        <mxCell id="yKf-Bc6Nf9YdXX6TuUnc-15" value="&lt;font style=&quot;&quot;&gt;&lt;i&gt;&lt;font style=&quot;font-size: 28px;&quot;&gt;&lt;u&gt;&lt;b&gt;Lorem ipsum&amp;nbsp;&lt;/b&gt;&lt;/u&gt;&lt;/font&gt;&lt;/i&gt;&lt;br&gt;&lt;br&gt;&lt;/font&gt;" style="rounded=0;whiteSpace=wrap;html=1;fontSize=40;verticalAlign=top;align=center;labelPosition=center;verticalLabelPosition=middle;labelBackgroundColor=default;" vertex="1" parent="yKf-Bc6Nf9YdXX6TuUnc-17">
          <mxGeometry width="255" height="140" as="geometry" />
        </mxCell>
        <mxCell id="yKf-Bc6Nf9YdXX6TuUnc-16" value="&lt;span style=&quot;color: rgb(0, 0, 0); font-family: Helvetica; font-size: 16px; font-style: normal; font-variant-ligatures: normal; font-variant-caps: normal; font-weight: 400; letter-spacing: normal; orphans: 2; text-align: center; text-indent: 0px; text-transform: none; widows: 2; word-spacing: 0px; -webkit-text-stroke-width: 0px; background-color: rgb(255, 255, 255); text-decoration-thickness: initial; text-decoration-style: initial; text-decoration-color: initial; float: none; display: inline !important;&quot;&gt;Lorem ipsum dolor sit amet, consectetur adipiscing elit.&lt;/span&gt;" style="text;whiteSpace=wrap;html=1;" vertex="1" parent="yKf-Bc6Nf9YdXX6TuUnc-17">
          <mxGeometry x="30" y="70" width="210" height="46.66666666666667" as="geometry" />
        </mxCell>
        <mxCell id="yKf-Bc6Nf9YdXX6TuUnc-25" value="" style="group" vertex="1" connectable="0" parent="yKf-Bc6Nf9YdXX6TuUnc-90">
          <mxGeometry x="70" y="690" width="260" height="160" as="geometry" />
        </mxCell>
        <mxCell id="yKf-Bc6Nf9YdXX6TuUnc-19" value="" style="rounded=0;whiteSpace=wrap;html=1;fontSize=40;verticalAlign=bottom;" vertex="1" parent="yKf-Bc6Nf9YdXX6TuUnc-25">
          <mxGeometry width="260" height="160" as="geometry" />
        </mxCell>
        <mxCell id="yKf-Bc6Nf9YdXX6TuUnc-23" value="" style="endArrow=none;html=1;rounded=0;entryX=0;entryY=0;entryDx=0;entryDy=0;exitX=1;exitY=1;exitDx=0;exitDy=0;" edge="1" parent="yKf-Bc6Nf9YdXX6TuUnc-25" source="yKf-Bc6Nf9YdXX6TuUnc-19" target="yKf-Bc6Nf9YdXX6TuUnc-19">
          <mxGeometry width="50" height="50" relative="1" as="geometry">
            <mxPoint x="220" y="130" as="sourcePoint" />
            <mxPoint x="270" y="80" as="targetPoint" />
            <Array as="points">
              <mxPoint x="140" y="90" />
            </Array>
          </mxGeometry>
        </mxCell>
        <mxCell id="yKf-Bc6Nf9YdXX6TuUnc-24" value="" style="endArrow=none;html=1;rounded=0;entryX=0;entryY=1;entryDx=0;entryDy=0;exitX=1;exitY=0;exitDx=0;exitDy=0;" edge="1" parent="yKf-Bc6Nf9YdXX6TuUnc-25" source="yKf-Bc6Nf9YdXX6TuUnc-19" target="yKf-Bc6Nf9YdXX6TuUnc-19">
          <mxGeometry width="50" height="50" relative="1" as="geometry">
            <mxPoint x="270" y="170" as="sourcePoint" />
            <mxPoint x="10" y="10" as="targetPoint" />
          </mxGeometry>
        </mxCell>
        <mxCell id="yKf-Bc6Nf9YdXX6TuUnc-26" value="" style="group" vertex="1" connectable="0" parent="yKf-Bc6Nf9YdXX6TuUnc-90">
          <mxGeometry x="460" y="690" width="260" height="160" as="geometry" />
        </mxCell>
        <mxCell id="yKf-Bc6Nf9YdXX6TuUnc-27" value="" style="rounded=0;whiteSpace=wrap;html=1;fontSize=40;verticalAlign=bottom;" vertex="1" parent="yKf-Bc6Nf9YdXX6TuUnc-26">
          <mxGeometry width="260" height="160" as="geometry" />
        </mxCell>
        <mxCell id="yKf-Bc6Nf9YdXX6TuUnc-28" value="" style="endArrow=none;html=1;rounded=0;entryX=0;entryY=0;entryDx=0;entryDy=0;exitX=1;exitY=1;exitDx=0;exitDy=0;" edge="1" parent="yKf-Bc6Nf9YdXX6TuUnc-26" source="yKf-Bc6Nf9YdXX6TuUnc-27" target="yKf-Bc6Nf9YdXX6TuUnc-27">
          <mxGeometry width="50" height="50" relative="1" as="geometry">
            <mxPoint x="220" y="130" as="sourcePoint" />
            <mxPoint x="270" y="80" as="targetPoint" />
            <Array as="points">
              <mxPoint x="140" y="90" />
            </Array>
          </mxGeometry>
        </mxCell>
        <mxCell id="yKf-Bc6Nf9YdXX6TuUnc-29" value="" style="endArrow=none;html=1;rounded=0;entryX=0;entryY=1;entryDx=0;entryDy=0;exitX=1;exitY=0;exitDx=0;exitDy=0;" edge="1" parent="yKf-Bc6Nf9YdXX6TuUnc-26" source="yKf-Bc6Nf9YdXX6TuUnc-27" target="yKf-Bc6Nf9YdXX6TuUnc-27">
          <mxGeometry width="50" height="50" relative="1" as="geometry">
            <mxPoint x="270" y="170" as="sourcePoint" />
            <mxPoint x="10" y="10" as="targetPoint" />
          </mxGeometry>
        </mxCell>
        <mxCell id="yKf-Bc6Nf9YdXX6TuUnc-30" value="" style="group" vertex="1" connectable="0" parent="yKf-Bc6Nf9YdXX6TuUnc-90">
          <mxGeometry x="860" y="690" width="260" height="160" as="geometry" />
        </mxCell>
        <mxCell id="yKf-Bc6Nf9YdXX6TuUnc-31" value="" style="rounded=0;whiteSpace=wrap;html=1;fontSize=40;verticalAlign=bottom;" vertex="1" parent="yKf-Bc6Nf9YdXX6TuUnc-30">
          <mxGeometry width="260" height="160" as="geometry" />
        </mxCell>
        <mxCell id="yKf-Bc6Nf9YdXX6TuUnc-32" value="" style="endArrow=none;html=1;rounded=0;entryX=0;entryY=0;entryDx=0;entryDy=0;exitX=1;exitY=1;exitDx=0;exitDy=0;" edge="1" parent="yKf-Bc6Nf9YdXX6TuUnc-30" source="yKf-Bc6Nf9YdXX6TuUnc-31" target="yKf-Bc6Nf9YdXX6TuUnc-31">
          <mxGeometry width="50" height="50" relative="1" as="geometry">
            <mxPoint x="220" y="130" as="sourcePoint" />
            <mxPoint x="270" y="80" as="targetPoint" />
            <Array as="points">
              <mxPoint x="140" y="90" />
            </Array>
          </mxGeometry>
        </mxCell>
        <mxCell id="yKf-Bc6Nf9YdXX6TuUnc-33" value="" style="endArrow=none;html=1;rounded=0;entryX=0;entryY=1;entryDx=0;entryDy=0;exitX=1;exitY=0;exitDx=0;exitDy=0;" edge="1" parent="yKf-Bc6Nf9YdXX6TuUnc-30" source="yKf-Bc6Nf9YdXX6TuUnc-31" target="yKf-Bc6Nf9YdXX6TuUnc-31">
          <mxGeometry width="50" height="50" relative="1" as="geometry">
            <mxPoint x="270" y="170" as="sourcePoint" />
            <mxPoint x="10" y="10" as="targetPoint" />
          </mxGeometry>
        </mxCell>
        <mxCell id="yKf-Bc6Nf9YdXX6TuUnc-91" value="" style="group" vertex="1" connectable="0" parent="1">
          <mxGeometry x="2000" width="1200" height="960" as="geometry" />
        </mxCell>
        <mxCell id="yKf-Bc6Nf9YdXX6TuUnc-37" value="Page1&lt;span style=&quot;white-space: pre;&quot;&gt;	&lt;/span&gt;&lt;span style=&quot;white-space: pre;&quot;&gt;	&lt;/span&gt;&lt;span style=&quot;border-color: var(--border-color);&quot;&gt;Page2&lt;span style=&quot;white-space: pre;&quot;&gt;	&lt;/span&gt;&lt;span style=&quot;white-space: pre;&quot;&gt;	&lt;/span&gt;&lt;/span&gt;&lt;span style=&quot;border-color: var(--border-color);&quot;&gt;&lt;u&gt;Page3&lt;/u&gt;&lt;/span&gt;" style="rounded=0;whiteSpace=wrap;html=1;fontSize=20;" vertex="1" parent="yKf-Bc6Nf9YdXX6TuUnc-91">
          <mxGeometry x="320" width="880" height="70" as="geometry" />
        </mxCell>
        <mxCell id="yKf-Bc6Nf9YdXX6TuUnc-38" value="" style="rounded=0;whiteSpace=wrap;html=1;" vertex="1" parent="yKf-Bc6Nf9YdXX6TuUnc-91">
          <mxGeometry y="70" width="1200" height="820" as="geometry" />
        </mxCell>
        <mxCell id="yKf-Bc6Nf9YdXX6TuUnc-39" value="&lt;footer style=&quot;font-size: 16px;&quot; class=&quot;footer&quot;&gt;&lt;p class=&quot;footer__text&quot; style=&quot;font-size: 16px;&quot;&gt;Name YYYY&lt;/p&gt;&lt;/footer&gt;" style="rounded=0;whiteSpace=wrap;html=1;fontSize=16;" vertex="1" parent="yKf-Bc6Nf9YdXX6TuUnc-91">
          <mxGeometry y="890" width="1200" height="70" as="geometry" />
        </mxCell>
        <mxCell id="yKf-Bc6Nf9YdXX6TuUnc-40" value="Name" style="rounded=0;whiteSpace=wrap;html=1;fontSize=40;" vertex="1" parent="yKf-Bc6Nf9YdXX6TuUnc-91">
          <mxGeometry width="320" height="70" as="geometry" />
        </mxCell>
        <mxCell id="yKf-Bc6Nf9YdXX6TuUnc-41" value="&lt;h1 style=&quot;line-height: 90%;&quot;&gt;&lt;span style=&quot;font-weight: normal;&quot;&gt;&lt;font style=&quot;font-size: 16px;&quot;&gt;Lorem ipsum dolor sit amet, consectetur adipiscing elit. Proin ornare in ipsum sit amet tempus. Praesent bibendum sapien id nunc convallis malesuada. Suspendisse suscipit luctus orci. Aenean vehicula turpis ligula, sed dignissim lectus eleifend non. Aenean ligula nibh, sodales at velit in, eleifend suscipit urna. Proin et ipsum tortor. Praesent facilisis leo tempus, varius massa quis, ultrices tellus. Praesent facilisis et justo non consequat. Duis faucibus tincidunt risus convallis posuere.&lt;/font&gt;&lt;/span&gt;&lt;br&gt;&lt;/h1&gt;" style="text;html=1;strokeColor=none;fillColor=none;spacing=5;spacingTop=-20;whiteSpace=wrap;overflow=hidden;rounded=0;" vertex="1" parent="yKf-Bc6Nf9YdXX6TuUnc-91">
          <mxGeometry x="60" y="173" width="790" height="150" as="geometry" />
        </mxCell>
        <mxCell id="yKf-Bc6Nf9YdXX6TuUnc-48" value="" style="group" vertex="1" connectable="0" parent="yKf-Bc6Nf9YdXX6TuUnc-91">
          <mxGeometry x="110" y="413" width="480" height="320" as="geometry" />
        </mxCell>
        <mxCell id="yKf-Bc6Nf9YdXX6TuUnc-49" value="" style="rounded=0;whiteSpace=wrap;html=1;fontSize=40;verticalAlign=bottom;" vertex="1" parent="yKf-Bc6Nf9YdXX6TuUnc-48">
          <mxGeometry width="480" height="320" as="geometry" />
        </mxCell>
        <mxCell id="yKf-Bc6Nf9YdXX6TuUnc-50" value="" style="endArrow=none;html=1;rounded=0;entryX=0;entryY=0;entryDx=0;entryDy=0;exitX=1;exitY=1;exitDx=0;exitDy=0;" edge="1" parent="yKf-Bc6Nf9YdXX6TuUnc-48" source="yKf-Bc6Nf9YdXX6TuUnc-49" target="yKf-Bc6Nf9YdXX6TuUnc-49">
          <mxGeometry width="50" height="50" relative="1" as="geometry">
            <mxPoint x="406.15384615384613" y="260" as="sourcePoint" />
            <mxPoint x="498.46153846153845" y="160" as="targetPoint" />
            <Array as="points">
              <mxPoint x="258.46153846153845" y="180" />
            </Array>
          </mxGeometry>
        </mxCell>
        <mxCell id="yKf-Bc6Nf9YdXX6TuUnc-51" value="" style="endArrow=none;html=1;rounded=0;entryX=0;entryY=1;entryDx=0;entryDy=0;exitX=1;exitY=0;exitDx=0;exitDy=0;" edge="1" parent="yKf-Bc6Nf9YdXX6TuUnc-48" source="yKf-Bc6Nf9YdXX6TuUnc-49" target="yKf-Bc6Nf9YdXX6TuUnc-49">
          <mxGeometry width="50" height="50" relative="1" as="geometry">
            <mxPoint x="498.46153846153845" y="340" as="sourcePoint" />
            <mxPoint x="18.46153846153846" y="20" as="targetPoint" />
          </mxGeometry>
        </mxCell>
        <mxCell id="yKf-Bc6Nf9YdXX6TuUnc-89" value="" style="group" vertex="1" connectable="0" parent="yKf-Bc6Nf9YdXX6TuUnc-91">
          <mxGeometry x="720" y="363" width="370" height="450" as="geometry" />
        </mxCell>
        <mxCell id="yKf-Bc6Nf9YdXX6TuUnc-62" value="" style="rounded=0;whiteSpace=wrap;html=1;fontSize=40;verticalAlign=top;" vertex="1" parent="yKf-Bc6Nf9YdXX6TuUnc-89">
          <mxGeometry width="370" height="450" as="geometry" />
        </mxCell>
        <mxCell id="yKf-Bc6Nf9YdXX6TuUnc-74" value="" style="group" vertex="1" connectable="0" parent="yKf-Bc6Nf9YdXX6TuUnc-89">
          <mxGeometry x="50" y="110" width="252" height="53.33666666666704" as="geometry" />
        </mxCell>
        <mxCell id="yKf-Bc6Nf9YdXX6TuUnc-70" value="" style="rounded=0;whiteSpace=wrap;html=1;" vertex="1" parent="yKf-Bc6Nf9YdXX6TuUnc-74">
          <mxGeometry x="15.75" y="30.003333333333558" width="236.25" height="23.333333333333332" as="geometry" />
        </mxCell>
        <mxCell id="yKf-Bc6Nf9YdXX6TuUnc-71" value="Text" style="text;html=1;align=center;verticalAlign=middle;resizable=0;points=[];autosize=1;strokeColor=none;fillColor=none;" vertex="1" parent="yKf-Bc6Nf9YdXX6TuUnc-74">
          <mxGeometry width="50" height="30" as="geometry" />
        </mxCell>
        <mxCell id="yKf-Bc6Nf9YdXX6TuUnc-75" value="" style="group" vertex="1" connectable="0" parent="yKf-Bc6Nf9YdXX6TuUnc-89">
          <mxGeometry x="50" y="163.33999999999992" width="252" height="53.33666666666704" as="geometry" />
        </mxCell>
        <mxCell id="yKf-Bc6Nf9YdXX6TuUnc-76" value="" style="rounded=0;whiteSpace=wrap;html=1;" vertex="1" parent="yKf-Bc6Nf9YdXX6TuUnc-75">
          <mxGeometry x="15.75" y="30.003333333333558" width="236.25" height="23.333333333333332" as="geometry" />
        </mxCell>
        <mxCell id="yKf-Bc6Nf9YdXX6TuUnc-77" value="Text" style="text;html=1;align=center;verticalAlign=middle;resizable=0;points=[];autosize=1;strokeColor=none;fillColor=none;" vertex="1" parent="yKf-Bc6Nf9YdXX6TuUnc-75">
          <mxGeometry width="50" height="30" as="geometry" />
        </mxCell>
        <mxCell id="yKf-Bc6Nf9YdXX6TuUnc-78" value="" style="group" vertex="1" connectable="0" parent="yKf-Bc6Nf9YdXX6TuUnc-89">
          <mxGeometry x="50" y="216.67999999999984" width="252" height="53.33666666666704" as="geometry" />
        </mxCell>
        <mxCell id="yKf-Bc6Nf9YdXX6TuUnc-79" value="" style="rounded=0;whiteSpace=wrap;html=1;" vertex="1" parent="yKf-Bc6Nf9YdXX6TuUnc-78">
          <mxGeometry x="15.75" y="30.003333333333558" width="236.25" height="23.333333333333332" as="geometry" />
        </mxCell>
        <mxCell id="yKf-Bc6Nf9YdXX6TuUnc-80" value="Text" style="text;html=1;align=center;verticalAlign=middle;resizable=0;points=[];autosize=1;strokeColor=none;fillColor=none;" vertex="1" parent="yKf-Bc6Nf9YdXX6TuUnc-78">
          <mxGeometry width="50" height="30" as="geometry" />
        </mxCell>
        <mxCell id="yKf-Bc6Nf9YdXX6TuUnc-81" value="" style="group" vertex="1" connectable="0" parent="yKf-Bc6Nf9YdXX6TuUnc-89">
          <mxGeometry x="50" y="270.01999999999975" width="252" height="53.33666666666704" as="geometry" />
        </mxCell>
        <mxCell id="yKf-Bc6Nf9YdXX6TuUnc-82" value="" style="rounded=0;whiteSpace=wrap;html=1;" vertex="1" parent="yKf-Bc6Nf9YdXX6TuUnc-81">
          <mxGeometry x="15.75" y="30.003333333333558" width="236.25" height="23.333333333333332" as="geometry" />
        </mxCell>
        <mxCell id="yKf-Bc6Nf9YdXX6TuUnc-83" value="Text" style="text;html=1;align=center;verticalAlign=middle;resizable=0;points=[];autosize=1;strokeColor=none;fillColor=none;" vertex="1" parent="yKf-Bc6Nf9YdXX6TuUnc-81">
          <mxGeometry width="50" height="30" as="geometry" />
        </mxCell>
        <mxCell id="yKf-Bc6Nf9YdXX6TuUnc-84" value="" style="group" vertex="1" connectable="0" parent="yKf-Bc6Nf9YdXX6TuUnc-89">
          <mxGeometry x="50" y="323.3599999999997" width="252" height="53.33666666666704" as="geometry" />
        </mxCell>
        <mxCell id="yKf-Bc6Nf9YdXX6TuUnc-85" value="" style="rounded=0;whiteSpace=wrap;html=1;" vertex="1" parent="yKf-Bc6Nf9YdXX6TuUnc-84">
          <mxGeometry x="15.75" y="30.003333333333558" width="236.25" height="23.333333333333332" as="geometry" />
        </mxCell>
        <mxCell id="yKf-Bc6Nf9YdXX6TuUnc-86" value="Text" style="text;html=1;align=center;verticalAlign=middle;resizable=0;points=[];autosize=1;strokeColor=none;fillColor=none;" vertex="1" parent="yKf-Bc6Nf9YdXX6TuUnc-84">
          <mxGeometry width="50" height="30" as="geometry" />
        </mxCell>
        <mxCell id="yKf-Bc6Nf9YdXX6TuUnc-87" value="Button" style="rounded=0;whiteSpace=wrap;html=1;" vertex="1" parent="yKf-Bc6Nf9YdXX6TuUnc-89">
          <mxGeometry x="20" y="400" width="120" height="30" as="geometry" />
        </mxCell>
        <mxCell id="yKf-Bc6Nf9YdXX6TuUnc-88" value="&lt;font style=&quot;font-size: 20px;&quot;&gt;&lt;b&gt;Heading&lt;/b&gt;&lt;/font&gt;&lt;br&gt;&lt;br&gt;&lt;font style=&quot;font-size: 16px;&quot;&gt;&lt;b&gt;Lorem ipsum dolor sit amet, consectetur&lt;/b&gt;&lt;/font&gt;" style="text;html=1;align=center;verticalAlign=middle;resizable=0;points=[];autosize=1;strokeColor=none;fillColor=none;" vertex="1" parent="yKf-Bc6Nf9YdXX6TuUnc-89">
          <mxGeometry x="20" y="15" width="330" height="70" as="geometry" />
        </mxCell>
        <mxCell id="yKf-Bc6Nf9YdXX6TuUnc-137" value="" style="group" vertex="1" connectable="0" parent="1">
          <mxGeometry x="720" y="1040" width="1200" height="960" as="geometry" />
        </mxCell>
        <mxCell id="yKf-Bc6Nf9YdXX6TuUnc-94" value="Page1&lt;span style=&quot;white-space: pre;&quot;&gt;	&lt;/span&gt;&lt;span style=&quot;white-space: pre;&quot;&gt;	&lt;/span&gt;&lt;span style=&quot;border-color: var(--border-color);&quot;&gt;&lt;u&gt;Page2&lt;/u&gt;&lt;span style=&quot;white-space: pre;&quot;&gt;	&lt;/span&gt;&lt;span style=&quot;white-space: pre;&quot;&gt;	&lt;/span&gt;&lt;/span&gt;&lt;span style=&quot;border-color: var(--border-color);&quot;&gt;Page3&lt;/span&gt;" style="rounded=0;whiteSpace=wrap;html=1;fontSize=20;" vertex="1" parent="yKf-Bc6Nf9YdXX6TuUnc-137">
          <mxGeometry x="320" width="880" height="70" as="geometry" />
        </mxCell>
        <mxCell id="yKf-Bc6Nf9YdXX6TuUnc-95" value="" style="rounded=0;whiteSpace=wrap;html=1;" vertex="1" parent="yKf-Bc6Nf9YdXX6TuUnc-137">
          <mxGeometry y="70" width="1200" height="820" as="geometry" />
        </mxCell>
        <mxCell id="yKf-Bc6Nf9YdXX6TuUnc-96" value="&lt;footer style=&quot;font-size: 16px;&quot; class=&quot;footer&quot;&gt;&lt;p class=&quot;footer__text&quot; style=&quot;font-size: 16px;&quot;&gt;Name YYYY&lt;/p&gt;&lt;/footer&gt;" style="rounded=0;whiteSpace=wrap;html=1;fontSize=16;" vertex="1" parent="yKf-Bc6Nf9YdXX6TuUnc-137">
          <mxGeometry y="890" width="1200" height="70" as="geometry" />
        </mxCell>
        <mxCell id="yKf-Bc6Nf9YdXX6TuUnc-97" value="Name" style="rounded=0;whiteSpace=wrap;html=1;fontSize=40;" vertex="1" parent="yKf-Bc6Nf9YdXX6TuUnc-137">
          <mxGeometry width="320" height="70" as="geometry" />
        </mxCell>
        <mxCell id="yKf-Bc6Nf9YdXX6TuUnc-98" value="&lt;h1 style=&quot;line-height: 90%;&quot;&gt;&lt;font style=&quot;font-size: 20px;&quot;&gt;Heading&lt;/font&gt;&lt;/h1&gt;&lt;h1 style=&quot;line-height: 90%;&quot;&gt;&lt;span style=&quot;font-weight: normal;&quot;&gt;&lt;font style=&quot;font-size: 16px;&quot;&gt;Lorem ipsum dolor sit amet, consectetur adipiscing elit. Proin ornare in ipsum sit amet tempus. Praesent bibendum sapien id nunc convallis malesuada.&lt;/font&gt;&lt;/span&gt;&lt;br&gt;&lt;/h1&gt;&lt;div style=&quot;&quot;&gt;&lt;h1 style=&quot;border-color: var(--border-color); line-height: 21.6px;&quot;&gt;&lt;div style=&quot;font-size: 16px; border-color: var(--border-color); font-weight: 400;&quot;&gt;&lt;b style=&quot;border-color: var(--border-color);&quot;&gt;List 1&lt;/b&gt;&lt;/div&gt;&lt;div style=&quot;font-size: 16px; border-color: var(--border-color); font-weight: 400;&quot;&gt;&lt;ul&gt;&lt;li&gt;- element1&lt;/li&gt;&lt;li&gt;- element2&lt;/li&gt;&lt;/ul&gt;&lt;/div&gt;&lt;div style=&quot;border-color: var(--border-color);&quot;&gt;&lt;div style=&quot;font-size: 16px; font-weight: 400; border-color: var(--border-color);&quot;&gt;&lt;b style=&quot;border-color: var(--border-color);&quot;&gt;List 2&lt;/b&gt;&lt;/div&gt;&lt;div style=&quot;font-size: 16px; font-weight: 400; border-color: var(--border-color);&quot;&gt;&lt;ul&gt;&lt;li&gt;element1&lt;/li&gt;&lt;li&gt;element2&lt;/li&gt;&lt;/ul&gt;&lt;/div&gt;&lt;div style=&quot;border-color: var(--border-color);&quot;&gt;&lt;div style=&quot;border-color: var(--border-color);&quot;&gt;&lt;font style=&quot;font-size: 16px; font-weight: normal;&quot;&gt;Lorem ipsum dolor sit amet, consectetur adipiscing elit. Proin ornare in ipsum sit amet tempus. Praesent bibendum sapien id nunc convallis malesuada. Suspendisse suscipit luctus orci. Aenean vehicula turpis ligula, sed dignissim lectus eleifend non. Aenean ligula nibh, sodales at velit in, eleifend suscipit urna. Proin et ipsum tortor.&lt;/font&gt;&lt;br&gt;&lt;span style=&quot;font-size: 16px; font-weight: 400; border-color: var(--border-color);&quot;&gt;&lt;b style=&quot;border-color: var(--border-color);&quot;&gt;&lt;/b&gt;&lt;/span&gt;&lt;/div&gt;&lt;div style=&quot;border-color: var(--border-color);&quot;&gt;&lt;font style=&quot;font-size: 16px; font-weight: normal;&quot;&gt;&lt;br&gt;&lt;/font&gt;&lt;/div&gt;&lt;div style=&quot;border-color: var(--border-color);&quot;&gt;&lt;font style=&quot;font-size: 20px;&quot;&gt;Heading&lt;/font&gt;&lt;/div&gt;&lt;div style=&quot;border-color: var(--border-color);&quot;&gt;&lt;font style=&quot;font-size: 20px;&quot;&gt;&lt;div style=&quot;border-color: var(--border-color); font-size: 16px; font-weight: 400;&quot;&gt;&lt;ul style=&quot;border-color: var(--border-color);&quot;&gt;&lt;li style=&quot;border-color: var(--border-color);&quot;&gt;element1&lt;/li&gt;&lt;li style=&quot;border-color: var(--border-color);&quot;&gt;element2&lt;/li&gt;&lt;li style=&quot;border-color: var(--border-color);&quot;&gt;element3&lt;/li&gt;&lt;/ul&gt;&lt;/div&gt;&lt;div style=&quot;border-color: var(--border-color); font-size: 16px; font-weight: 400;&quot;&gt;&lt;br style=&quot;border-color: var(--border-color);&quot;&gt;&lt;/div&gt;&lt;/font&gt;&lt;/div&gt;&lt;/div&gt;&lt;/div&gt;&lt;/h1&gt;&lt;/div&gt;" style="text;html=1;strokeColor=none;fillColor=none;spacing=5;spacingTop=-20;whiteSpace=wrap;overflow=hidden;rounded=0;" vertex="1" parent="yKf-Bc6Nf9YdXX6TuUnc-137">
          <mxGeometry x="60" y="120" width="1080" height="590" as="geometry" />
        </mxCell>
        <mxCell id="yKf-Bc6Nf9YdXX6TuUnc-99" value="" style="group" vertex="1" connectable="0" parent="yKf-Bc6Nf9YdXX6TuUnc-137">
          <mxGeometry x="120" y="640" width="370" height="200" as="geometry" />
        </mxCell>
        <mxCell id="yKf-Bc6Nf9YdXX6TuUnc-124" value="" style="group" vertex="1" connectable="0" parent="yKf-Bc6Nf9YdXX6TuUnc-99">
          <mxGeometry width="370" height="200" as="geometry" />
        </mxCell>
        <mxCell id="yKf-Bc6Nf9YdXX6TuUnc-100" value="" style="rounded=0;whiteSpace=wrap;html=1;fontSize=40;verticalAlign=bottom;" vertex="1" parent="yKf-Bc6Nf9YdXX6TuUnc-124">
          <mxGeometry width="370" height="200" as="geometry" />
        </mxCell>
        <mxCell id="yKf-Bc6Nf9YdXX6TuUnc-101" value="" style="endArrow=none;html=1;rounded=0;entryX=0;entryY=0;entryDx=0;entryDy=0;exitX=1;exitY=1;exitDx=0;exitDy=0;" edge="1" parent="yKf-Bc6Nf9YdXX6TuUnc-124" source="yKf-Bc6Nf9YdXX6TuUnc-100" target="yKf-Bc6Nf9YdXX6TuUnc-100">
          <mxGeometry width="50" height="50" relative="1" as="geometry">
            <mxPoint x="313.0769230769231" y="162.5" as="sourcePoint" />
            <mxPoint x="384.2307692307692" y="100" as="targetPoint" />
            <Array as="points">
              <mxPoint x="199.23076923076923" y="112.5" />
            </Array>
          </mxGeometry>
        </mxCell>
        <mxCell id="yKf-Bc6Nf9YdXX6TuUnc-102" value="" style="endArrow=none;html=1;rounded=0;entryX=0;entryY=1;entryDx=0;entryDy=0;exitX=1;exitY=0;exitDx=0;exitDy=0;" edge="1" parent="yKf-Bc6Nf9YdXX6TuUnc-124" source="yKf-Bc6Nf9YdXX6TuUnc-100" target="yKf-Bc6Nf9YdXX6TuUnc-100">
          <mxGeometry width="50" height="50" relative="1" as="geometry">
            <mxPoint x="384.2307692307692" y="212.5" as="sourcePoint" />
            <mxPoint x="14.23076923076923" y="12.5" as="targetPoint" />
          </mxGeometry>
        </mxCell>
        <mxCell id="yKf-Bc6Nf9YdXX6TuUnc-125" value="" style="group" vertex="1" connectable="0" parent="yKf-Bc6Nf9YdXX6TuUnc-137">
          <mxGeometry x="690" y="640" width="370" height="200" as="geometry" />
        </mxCell>
        <mxCell id="yKf-Bc6Nf9YdXX6TuUnc-126" value="" style="group" vertex="1" connectable="0" parent="yKf-Bc6Nf9YdXX6TuUnc-125">
          <mxGeometry width="370" height="200" as="geometry" />
        </mxCell>
        <mxCell id="yKf-Bc6Nf9YdXX6TuUnc-127" value="" style="rounded=0;whiteSpace=wrap;html=1;fontSize=40;verticalAlign=bottom;" vertex="1" parent="yKf-Bc6Nf9YdXX6TuUnc-126">
          <mxGeometry width="370" height="200" as="geometry" />
        </mxCell>
        <mxCell id="yKf-Bc6Nf9YdXX6TuUnc-128" value="" style="endArrow=none;html=1;rounded=0;entryX=0;entryY=0;entryDx=0;entryDy=0;exitX=1;exitY=1;exitDx=0;exitDy=0;" edge="1" parent="yKf-Bc6Nf9YdXX6TuUnc-126" source="yKf-Bc6Nf9YdXX6TuUnc-127" target="yKf-Bc6Nf9YdXX6TuUnc-127">
          <mxGeometry width="50" height="50" relative="1" as="geometry">
            <mxPoint x="313.0769230769231" y="162.5" as="sourcePoint" />
            <mxPoint x="384.2307692307692" y="100" as="targetPoint" />
            <Array as="points">
              <mxPoint x="199.23076923076923" y="112.5" />
            </Array>
          </mxGeometry>
        </mxCell>
        <mxCell id="yKf-Bc6Nf9YdXX6TuUnc-129" value="" style="endArrow=none;html=1;rounded=0;entryX=0;entryY=1;entryDx=0;entryDy=0;exitX=1;exitY=0;exitDx=0;exitDy=0;" edge="1" parent="yKf-Bc6Nf9YdXX6TuUnc-126" source="yKf-Bc6Nf9YdXX6TuUnc-127" target="yKf-Bc6Nf9YdXX6TuUnc-127">
          <mxGeometry width="50" height="50" relative="1" as="geometry">
            <mxPoint x="384.2307692307692" y="212.5" as="sourcePoint" />
            <mxPoint x="14.23076923076923" y="12.5" as="targetPoint" />
          </mxGeometry>
        </mxCell>
        <mxCell id="yKf-Bc6Nf9YdXX6TuUnc-132" value="" style="group" vertex="1" connectable="0" parent="yKf-Bc6Nf9YdXX6TuUnc-137">
          <mxGeometry x="870" y="480" width="255" height="140" as="geometry" />
        </mxCell>
        <mxCell id="yKf-Bc6Nf9YdXX6TuUnc-133" value="&lt;font style=&quot;&quot;&gt;&lt;i&gt;&lt;font style=&quot;font-size: 28px;&quot;&gt;&lt;u&gt;&lt;b&gt;Lorem ipsum&amp;nbsp;&lt;/b&gt;&lt;/u&gt;&lt;/font&gt;&lt;/i&gt;&lt;br&gt;&lt;br&gt;&lt;/font&gt;" style="rounded=0;whiteSpace=wrap;html=1;fontSize=40;verticalAlign=top;align=center;labelPosition=center;verticalLabelPosition=middle;labelBackgroundColor=default;" vertex="1" parent="yKf-Bc6Nf9YdXX6TuUnc-132">
          <mxGeometry width="255" height="140" as="geometry" />
        </mxCell>
        <mxCell id="yKf-Bc6Nf9YdXX6TuUnc-134" value="&lt;span style=&quot;color: rgb(0, 0, 0); font-family: Helvetica; font-size: 16px; font-style: normal; font-variant-ligatures: normal; font-variant-caps: normal; font-weight: 400; letter-spacing: normal; orphans: 2; text-align: center; text-indent: 0px; text-transform: none; widows: 2; word-spacing: 0px; -webkit-text-stroke-width: 0px; background-color: rgb(255, 255, 255); text-decoration-thickness: initial; text-decoration-style: initial; text-decoration-color: initial; float: none; display: inline !important;&quot;&gt;Lorem ipsum dolor sit amet, consectetur adipiscing elit.&lt;/span&gt;" style="text;whiteSpace=wrap;html=1;" vertex="1" parent="yKf-Bc6Nf9YdXX6TuUnc-132">
          <mxGeometry x="30" y="70" width="210" height="46.66666666666667" as="geometry" />
        </mxCell>
        <mxCell id="yKf-Bc6Nf9YdXX6TuUnc-139" value="" style="group" vertex="1" connectable="0" parent="1">
          <mxGeometry x="2000" y="1040" width="1200" height="960" as="geometry" />
        </mxCell>
        <mxCell id="yKf-Bc6Nf9YdXX6TuUnc-140" value="Page1&lt;span style=&quot;white-space: pre;&quot;&gt;	&lt;/span&gt;&lt;span style=&quot;white-space: pre;&quot;&gt;	&lt;/span&gt;&lt;span style=&quot;border-color: var(--border-color);&quot;&gt;&lt;u&gt;Page2&lt;/u&gt;&lt;span style=&quot;white-space: pre;&quot;&gt;	&lt;/span&gt;&lt;span style=&quot;white-space: pre;&quot;&gt;	&lt;/span&gt;&lt;/span&gt;&lt;span style=&quot;border-color: var(--border-color);&quot;&gt;Page3&lt;/span&gt;" style="rounded=0;whiteSpace=wrap;html=1;fontSize=20;" vertex="1" parent="yKf-Bc6Nf9YdXX6TuUnc-139">
          <mxGeometry x="320" width="880" height="70" as="geometry" />
        </mxCell>
        <mxCell id="yKf-Bc6Nf9YdXX6TuUnc-141" value="" style="rounded=0;whiteSpace=wrap;html=1;" vertex="1" parent="yKf-Bc6Nf9YdXX6TuUnc-139">
          <mxGeometry y="70" width="1200" height="820" as="geometry" />
        </mxCell>
        <mxCell id="yKf-Bc6Nf9YdXX6TuUnc-142" value="&lt;footer style=&quot;font-size: 16px;&quot; class=&quot;footer&quot;&gt;&lt;p class=&quot;footer__text&quot; style=&quot;font-size: 16px;&quot;&gt;Name YYYY&lt;/p&gt;&lt;/footer&gt;" style="rounded=0;whiteSpace=wrap;html=1;fontSize=16;" vertex="1" parent="yKf-Bc6Nf9YdXX6TuUnc-139">
          <mxGeometry y="890" width="1200" height="70" as="geometry" />
        </mxCell>
        <mxCell id="yKf-Bc6Nf9YdXX6TuUnc-143" value="Name" style="rounded=0;whiteSpace=wrap;html=1;fontSize=40;" vertex="1" parent="yKf-Bc6Nf9YdXX6TuUnc-139">
          <mxGeometry width="320" height="70" as="geometry" />
        </mxCell>
        <mxCell id="yKf-Bc6Nf9YdXX6TuUnc-144" value="&lt;h1 style=&quot;line-height: 90%;&quot;&gt;&lt;font style=&quot;font-size: 20px;&quot;&gt;Heading&lt;/font&gt;&lt;/h1&gt;&lt;h1 style=&quot;line-height: 90%;&quot;&gt;&lt;/h1&gt;&lt;div style=&quot;&quot;&gt;&lt;h1 style=&quot;border-color: var(--border-color); line-height: 21.6px;&quot;&gt;&lt;div style=&quot;border-color: var(--border-color);&quot;&gt;&lt;b style=&quot;font-size: 16px; font-weight: 400;&quot;&gt;Lorem ipsum dolor sit amet, consectetur adipiscing elit. Proin ornare in ipsum sit amet tempus. Praesent bibendum sapien id nunc convallis malesuada. Suspendisse suscipit luctus orci. Aenean vehicula turpis ligula, sed dignissim lectus eleifend non. Aenean ligula nibh, sodales at velit in, eleifend suscipit urna. Proin et ipsum tortor.&lt;/b&gt;&lt;/div&gt;&lt;div style=&quot;border-color: var(--border-color);&quot;&gt;&lt;div style=&quot;font-size: 16px; font-weight: 400; border-color: var(--border-color);&quot;&gt;&lt;br&gt;&lt;/div&gt;&lt;div style=&quot;font-size: 16px; font-weight: 400; border-color: var(--border-color);&quot;&gt;&lt;br&gt;&lt;/div&gt;&lt;div style=&quot;font-size: 16px; font-weight: 400; border-color: var(--border-color);&quot;&gt;&lt;br&gt;&lt;/div&gt;&lt;div style=&quot;border-color: var(--border-color);&quot;&gt;&lt;div style=&quot;border-color: var(--border-color);&quot;&gt;&lt;font style=&quot;font-size: 20px;&quot;&gt;Heading&lt;/font&gt;&lt;/div&gt;&lt;div style=&quot;border-color: var(--border-color);&quot;&gt;&lt;font style=&quot;&quot;&gt;&lt;div style=&quot;font-size: 16px; border-color: var(--border-color); font-weight: 400;&quot;&gt;&lt;ul style=&quot;border-color: var(--border-color);&quot;&gt;&lt;li style=&quot;border-color: var(--border-color);&quot;&gt;element1&lt;/li&gt;&lt;li style=&quot;border-color: var(--border-color);&quot;&gt;element2&lt;/li&gt;&lt;li style=&quot;border-color: var(--border-color);&quot;&gt;element3&lt;/li&gt;&lt;li style=&quot;border-color: var(--border-color);&quot;&gt;element4&lt;/li&gt;&lt;li style=&quot;border-color: var(--border-color);&quot;&gt;element5&lt;/li&gt;&lt;/ul&gt;&lt;/div&gt;&lt;div style=&quot;border-color: var(--border-color);&quot;&gt;&lt;br&gt;&lt;br&gt;&lt;font style=&quot;font-size: 20px;&quot;&gt;Heading&lt;/font&gt;&lt;br style=&quot;border-color: var(--border-color);&quot;&gt;&lt;/div&gt;&lt;/font&gt;&lt;/div&gt;&lt;/div&gt;&lt;/div&gt;&lt;/h1&gt;&lt;/div&gt;" style="text;html=1;strokeColor=none;fillColor=none;spacing=5;spacingTop=-20;whiteSpace=wrap;overflow=hidden;rounded=0;" vertex="1" parent="yKf-Bc6Nf9YdXX6TuUnc-139">
          <mxGeometry x="60" y="120" width="1080" height="430" as="geometry" />
        </mxCell>
        <mxCell id="yKf-Bc6Nf9YdXX6TuUnc-158" value="Table" style="shape=table;startSize=30;container=1;collapsible=0;childLayout=tableLayout;strokeColor=default;fontSize=16;" vertex="1" parent="yKf-Bc6Nf9YdXX6TuUnc-139">
          <mxGeometry x="60" y="590" width="1070" height="190" as="geometry" />
        </mxCell>
        <mxCell id="yKf-Bc6Nf9YdXX6TuUnc-159" value="" style="shape=tableRow;horizontal=0;startSize=0;swimlaneHead=0;swimlaneBody=0;strokeColor=inherit;top=0;left=0;bottom=0;right=0;collapsible=0;dropTarget=0;fillColor=none;points=[[0,0.5],[1,0.5]];portConstraint=eastwest;fontSize=16;" vertex="1" parent="yKf-Bc6Nf9YdXX6TuUnc-158">
          <mxGeometry y="30" width="1070" height="80" as="geometry" />
        </mxCell>
        <mxCell id="yKf-Bc6Nf9YdXX6TuUnc-160" value="Lorem ipsum dolor sit amet, consectetur adipiscing elit. Proin ornare in ipsum sit amet tempus.&amp;nbsp;" style="shape=partialRectangle;html=1;whiteSpace=wrap;connectable=0;strokeColor=inherit;overflow=hidden;fillColor=none;top=0;left=0;bottom=0;right=0;pointerEvents=1;fontSize=16;" vertex="1" parent="yKf-Bc6Nf9YdXX6TuUnc-159">
          <mxGeometry width="357" height="80" as="geometry">
            <mxRectangle width="357" height="80" as="alternateBounds" />
          </mxGeometry>
        </mxCell>
        <mxCell id="yKf-Bc6Nf9YdXX6TuUnc-161" value="Lorem ipsum dolor sit amet, consectetur adipiscing elit. Proin ornare in ipsum sit amet tempus.&amp;nbsp;" style="shape=partialRectangle;html=1;whiteSpace=wrap;connectable=0;strokeColor=inherit;overflow=hidden;fillColor=none;top=0;left=0;bottom=0;right=0;pointerEvents=1;fontSize=16;" vertex="1" parent="yKf-Bc6Nf9YdXX6TuUnc-159">
          <mxGeometry x="357" width="356" height="80" as="geometry">
            <mxRectangle width="356" height="80" as="alternateBounds" />
          </mxGeometry>
        </mxCell>
        <mxCell id="yKf-Bc6Nf9YdXX6TuUnc-162" value="Lorem ipsum dolor sit amet, consectetur adipiscing elit. Proin ornare in ipsum sit amet tempus.&amp;nbsp;" style="shape=partialRectangle;html=1;whiteSpace=wrap;connectable=0;strokeColor=inherit;overflow=hidden;fillColor=none;top=0;left=0;bottom=0;right=0;pointerEvents=1;fontSize=16;" vertex="1" parent="yKf-Bc6Nf9YdXX6TuUnc-159">
          <mxGeometry x="713" width="357" height="80" as="geometry">
            <mxRectangle width="357" height="80" as="alternateBounds" />
          </mxGeometry>
        </mxCell>
        <mxCell id="yKf-Bc6Nf9YdXX6TuUnc-163" value="" style="shape=tableRow;horizontal=0;startSize=0;swimlaneHead=0;swimlaneBody=0;strokeColor=inherit;top=0;left=0;bottom=0;right=0;collapsible=0;dropTarget=0;fillColor=none;points=[[0,0.5],[1,0.5]];portConstraint=eastwest;fontSize=16;" vertex="1" parent="yKf-Bc6Nf9YdXX6TuUnc-158">
          <mxGeometry y="110" width="1070" height="80" as="geometry" />
        </mxCell>
        <mxCell id="yKf-Bc6Nf9YdXX6TuUnc-164" value="Lorem ipsum dolor sit amet, consectetur adipiscing elit. Proin ornare in ipsum sit amet tempus.&amp;nbsp;" style="shape=partialRectangle;html=1;whiteSpace=wrap;connectable=0;strokeColor=inherit;overflow=hidden;fillColor=none;top=0;left=0;bottom=0;right=0;pointerEvents=1;fontSize=16;" vertex="1" parent="yKf-Bc6Nf9YdXX6TuUnc-163">
          <mxGeometry width="357" height="80" as="geometry">
            <mxRectangle width="357" height="80" as="alternateBounds" />
          </mxGeometry>
        </mxCell>
        <mxCell id="yKf-Bc6Nf9YdXX6TuUnc-165" value="Lorem ipsum dolor sit amet, consectetur adipiscing elit. Proin ornare in ipsum sit amet tempus.&amp;nbsp;" style="shape=partialRectangle;html=1;whiteSpace=wrap;connectable=0;strokeColor=inherit;overflow=hidden;fillColor=none;top=0;left=0;bottom=0;right=0;pointerEvents=1;fontSize=16;" vertex="1" parent="yKf-Bc6Nf9YdXX6TuUnc-163">
          <mxGeometry x="357" width="356" height="80" as="geometry">
            <mxRectangle width="356" height="80" as="alternateBounds" />
          </mxGeometry>
        </mxCell>
        <mxCell id="yKf-Bc6Nf9YdXX6TuUnc-166" value="Lorem ipsum dolor sit amet, consectetur adipiscing elit. Proin ornare in ipsum sit amet tempus.&amp;nbsp;" style="shape=partialRectangle;html=1;whiteSpace=wrap;connectable=0;strokeColor=inherit;overflow=hidden;fillColor=none;top=0;left=0;bottom=0;right=0;pointerEvents=1;fontSize=16;" vertex="1" parent="yKf-Bc6Nf9YdXX6TuUnc-163">
          <mxGeometry x="713" width="357" height="80" as="geometry">
            <mxRectangle width="357" height="80" as="alternateBounds" />
          </mxGeometry>
        </mxCell>
        <mxCell id="yKf-Bc6Nf9YdXX6TuUnc-155" value="" style="group" vertex="1" connectable="0" parent="yKf-Bc6Nf9YdXX6TuUnc-139">
          <mxGeometry x="875" y="300" width="255" height="140" as="geometry" />
        </mxCell>
        <mxCell id="yKf-Bc6Nf9YdXX6TuUnc-156" value="&lt;font style=&quot;&quot;&gt;&lt;i&gt;&lt;font style=&quot;font-size: 28px;&quot;&gt;&lt;u&gt;&lt;b&gt;Lorem ipsum&amp;nbsp;&lt;/b&gt;&lt;/u&gt;&lt;/font&gt;&lt;/i&gt;&lt;br&gt;&lt;br&gt;&lt;/font&gt;" style="rounded=0;whiteSpace=wrap;html=1;fontSize=40;verticalAlign=top;align=center;labelPosition=center;verticalLabelPosition=middle;labelBackgroundColor=default;" vertex="1" parent="yKf-Bc6Nf9YdXX6TuUnc-155">
          <mxGeometry width="255" height="140" as="geometry" />
        </mxCell>
        <mxCell id="yKf-Bc6Nf9YdXX6TuUnc-157" value="&lt;span style=&quot;color: rgb(0, 0, 0); font-family: Helvetica; font-size: 16px; font-style: normal; font-variant-ligatures: normal; font-variant-caps: normal; font-weight: 400; letter-spacing: normal; orphans: 2; text-align: center; text-indent: 0px; text-transform: none; widows: 2; word-spacing: 0px; -webkit-text-stroke-width: 0px; background-color: rgb(255, 255, 255); text-decoration-thickness: initial; text-decoration-style: initial; text-decoration-color: initial; float: none; display: inline !important;&quot;&gt;Lorem ipsum dolor sit amet, consectetur adipiscing elit.&lt;/span&gt;" style="text;whiteSpace=wrap;html=1;" vertex="1" parent="yKf-Bc6Nf9YdXX6TuUnc-155">
          <mxGeometry x="30" y="70" width="210" height="46.66666666666667" as="geometry" />
        </mxCell>
        <mxCell id="fYmo6KUBZLOie_lvJKXH-1" value="" style="group" vertex="1" connectable="0" parent="1">
          <mxGeometry x="2000" width="1200" height="960" as="geometry" />
        </mxCell>
        <mxCell id="fYmo6KUBZLOie_lvJKXH-2" value="Page1&lt;span style=&quot;white-space: pre;&quot;&gt;	&lt;/span&gt;&lt;span style=&quot;white-space: pre;&quot;&gt;	&lt;/span&gt;&lt;span style=&quot;border-color: var(--border-color);&quot;&gt;Page2&lt;span style=&quot;white-space: pre;&quot;&gt;	&lt;/span&gt;&lt;span style=&quot;white-space: pre;&quot;&gt;	&lt;/span&gt;&lt;/span&gt;&lt;span style=&quot;border-color: var(--border-color);&quot;&gt;&lt;u&gt;Page3&lt;/u&gt;&lt;/span&gt;" style="rounded=0;whiteSpace=wrap;html=1;fontSize=20;" vertex="1" parent="fYmo6KUBZLOie_lvJKXH-1">
          <mxGeometry x="320" width="880" height="70" as="geometry" />
        </mxCell>
        <mxCell id="fYmo6KUBZLOie_lvJKXH-3" value="" style="rounded=0;whiteSpace=wrap;html=1;" vertex="1" parent="fYmo6KUBZLOie_lvJKXH-1">
          <mxGeometry y="70" width="1200" height="820" as="geometry" />
        </mxCell>
        <mxCell id="fYmo6KUBZLOie_lvJKXH-4" value="&lt;footer style=&quot;font-size: 16px;&quot; class=&quot;footer&quot;&gt;&lt;p class=&quot;footer__text&quot; style=&quot;font-size: 16px;&quot;&gt;Name YYYY&lt;/p&gt;&lt;/footer&gt;" style="rounded=0;whiteSpace=wrap;html=1;fontSize=16;" vertex="1" parent="fYmo6KUBZLOie_lvJKXH-1">
          <mxGeometry y="890" width="1200" height="70" as="geometry" />
        </mxCell>
        <mxCell id="fYmo6KUBZLOie_lvJKXH-5" value="Name" style="rounded=0;whiteSpace=wrap;html=1;fontSize=40;" vertex="1" parent="fYmo6KUBZLOie_lvJKXH-1">
          <mxGeometry width="320" height="70" as="geometry" />
        </mxCell>
        <mxCell id="fYmo6KUBZLOie_lvJKXH-6" value="&lt;h1 style=&quot;line-height: 90%;&quot;&gt;&lt;span style=&quot;font-weight: normal;&quot;&gt;&lt;font style=&quot;font-size: 16px;&quot;&gt;Lorem ipsum dolor sit amet, consectetur adipiscing elit. Proin ornare in ipsum sit amet tempus. Praesent bibendum sapien id nunc convallis malesuada. Suspendisse suscipit luctus orci. Aenean vehicula turpis ligula, sed dignissim lectus eleifend non. Aenean ligula nibh, sodales at velit in, eleifend suscipit urna. Proin et ipsum tortor. Praesent facilisis leo tempus, varius massa quis, ultrices tellus. Praesent facilisis et justo non consequat. Duis faucibus tincidunt risus convallis posuere.&lt;/font&gt;&lt;/span&gt;&lt;br&gt;&lt;/h1&gt;" style="text;html=1;strokeColor=none;fillColor=none;spacing=5;spacingTop=-20;whiteSpace=wrap;overflow=hidden;rounded=0;" vertex="1" parent="fYmo6KUBZLOie_lvJKXH-1">
          <mxGeometry x="60" y="173" width="790" height="150" as="geometry" />
        </mxCell>
        <mxCell id="fYmo6KUBZLOie_lvJKXH-7" value="" style="group" vertex="1" connectable="0" parent="fYmo6KUBZLOie_lvJKXH-1">
          <mxGeometry x="110" y="413" width="480" height="320" as="geometry" />
        </mxCell>
        <mxCell id="fYmo6KUBZLOie_lvJKXH-8" value="" style="rounded=0;whiteSpace=wrap;html=1;fontSize=40;verticalAlign=bottom;" vertex="1" parent="fYmo6KUBZLOie_lvJKXH-7">
          <mxGeometry width="480" height="320" as="geometry" />
        </mxCell>
        <mxCell id="fYmo6KUBZLOie_lvJKXH-9" value="" style="endArrow=none;html=1;rounded=0;entryX=0;entryY=0;entryDx=0;entryDy=0;exitX=1;exitY=1;exitDx=0;exitDy=0;" edge="1" parent="fYmo6KUBZLOie_lvJKXH-7" source="fYmo6KUBZLOie_lvJKXH-8" target="fYmo6KUBZLOie_lvJKXH-8">
          <mxGeometry width="50" height="50" relative="1" as="geometry">
            <mxPoint x="406.15384615384613" y="260" as="sourcePoint" />
            <mxPoint x="498.46153846153845" y="160" as="targetPoint" />
            <Array as="points">
              <mxPoint x="258.46153846153845" y="180" />
            </Array>
          </mxGeometry>
        </mxCell>
        <mxCell id="fYmo6KUBZLOie_lvJKXH-10" value="" style="endArrow=none;html=1;rounded=0;entryX=0;entryY=1;entryDx=0;entryDy=0;exitX=1;exitY=0;exitDx=0;exitDy=0;" edge="1" parent="fYmo6KUBZLOie_lvJKXH-7" source="fYmo6KUBZLOie_lvJKXH-8" target="fYmo6KUBZLOie_lvJKXH-8">
          <mxGeometry width="50" height="50" relative="1" as="geometry">
            <mxPoint x="498.46153846153845" y="340" as="sourcePoint" />
            <mxPoint x="18.46153846153846" y="20" as="targetPoint" />
          </mxGeometry>
        </mxCell>
        <mxCell id="fYmo6KUBZLOie_lvJKXH-11" value="" style="group" vertex="1" connectable="0" parent="fYmo6KUBZLOie_lvJKXH-1">
          <mxGeometry x="720" y="363" width="370" height="450" as="geometry" />
        </mxCell>
        <mxCell id="fYmo6KUBZLOie_lvJKXH-12" value="" style="rounded=0;whiteSpace=wrap;html=1;fontSize=40;verticalAlign=top;" vertex="1" parent="fYmo6KUBZLOie_lvJKXH-11">
          <mxGeometry width="370" height="450" as="geometry" />
        </mxCell>
        <mxCell id="fYmo6KUBZLOie_lvJKXH-13" value="" style="group" vertex="1" connectable="0" parent="fYmo6KUBZLOie_lvJKXH-11">
          <mxGeometry x="50" y="110" width="252" height="53.33666666666704" as="geometry" />
        </mxCell>
        <mxCell id="fYmo6KUBZLOie_lvJKXH-14" value="" style="rounded=0;whiteSpace=wrap;html=1;" vertex="1" parent="fYmo6KUBZLOie_lvJKXH-13">
          <mxGeometry x="15.75" y="30.003333333333558" width="236.25" height="23.333333333333332" as="geometry" />
        </mxCell>
        <mxCell id="fYmo6KUBZLOie_lvJKXH-15" value="Text" style="text;html=1;align=center;verticalAlign=middle;resizable=0;points=[];autosize=1;strokeColor=none;fillColor=none;" vertex="1" parent="fYmo6KUBZLOie_lvJKXH-13">
          <mxGeometry width="50" height="30" as="geometry" />
        </mxCell>
        <mxCell id="fYmo6KUBZLOie_lvJKXH-16" value="" style="group" vertex="1" connectable="0" parent="fYmo6KUBZLOie_lvJKXH-11">
          <mxGeometry x="50" y="163.33999999999992" width="252" height="53.33666666666704" as="geometry" />
        </mxCell>
        <mxCell id="fYmo6KUBZLOie_lvJKXH-17" value="" style="rounded=0;whiteSpace=wrap;html=1;" vertex="1" parent="fYmo6KUBZLOie_lvJKXH-16">
          <mxGeometry x="15.75" y="30.003333333333558" width="236.25" height="23.333333333333332" as="geometry" />
        </mxCell>
        <mxCell id="fYmo6KUBZLOie_lvJKXH-18" value="Text" style="text;html=1;align=center;verticalAlign=middle;resizable=0;points=[];autosize=1;strokeColor=none;fillColor=none;" vertex="1" parent="fYmo6KUBZLOie_lvJKXH-16">
          <mxGeometry width="50" height="30" as="geometry" />
        </mxCell>
        <mxCell id="fYmo6KUBZLOie_lvJKXH-19" value="" style="group" vertex="1" connectable="0" parent="fYmo6KUBZLOie_lvJKXH-11">
          <mxGeometry x="50" y="216.67999999999984" width="252" height="53.33666666666704" as="geometry" />
        </mxCell>
        <mxCell id="fYmo6KUBZLOie_lvJKXH-20" value="" style="rounded=0;whiteSpace=wrap;html=1;" vertex="1" parent="fYmo6KUBZLOie_lvJKXH-19">
          <mxGeometry x="15.75" y="30.003333333333558" width="236.25" height="23.333333333333332" as="geometry" />
        </mxCell>
        <mxCell id="fYmo6KUBZLOie_lvJKXH-21" value="Text" style="text;html=1;align=center;verticalAlign=middle;resizable=0;points=[];autosize=1;strokeColor=none;fillColor=none;" vertex="1" parent="fYmo6KUBZLOie_lvJKXH-19">
          <mxGeometry width="50" height="30" as="geometry" />
        </mxCell>
        <mxCell id="fYmo6KUBZLOie_lvJKXH-22" value="" style="group" vertex="1" connectable="0" parent="fYmo6KUBZLOie_lvJKXH-11">
          <mxGeometry x="50" y="270.01999999999975" width="252" height="53.33666666666704" as="geometry" />
        </mxCell>
        <mxCell id="fYmo6KUBZLOie_lvJKXH-23" value="" style="rounded=0;whiteSpace=wrap;html=1;" vertex="1" parent="fYmo6KUBZLOie_lvJKXH-22">
          <mxGeometry x="15.75" y="30.003333333333558" width="236.25" height="23.333333333333332" as="geometry" />
        </mxCell>
        <mxCell id="fYmo6KUBZLOie_lvJKXH-24" value="Text" style="text;html=1;align=center;verticalAlign=middle;resizable=0;points=[];autosize=1;strokeColor=none;fillColor=none;" vertex="1" parent="fYmo6KUBZLOie_lvJKXH-22">
          <mxGeometry width="50" height="30" as="geometry" />
        </mxCell>
        <mxCell id="fYmo6KUBZLOie_lvJKXH-25" value="" style="group" vertex="1" connectable="0" parent="fYmo6KUBZLOie_lvJKXH-11">
          <mxGeometry x="50" y="323.3599999999997" width="252" height="53.33666666666704" as="geometry" />
        </mxCell>
        <mxCell id="fYmo6KUBZLOie_lvJKXH-26" value="" style="rounded=0;whiteSpace=wrap;html=1;" vertex="1" parent="fYmo6KUBZLOie_lvJKXH-25">
          <mxGeometry x="15.75" y="30.003333333333558" width="236.25" height="23.333333333333332" as="geometry" />
        </mxCell>
        <mxCell id="fYmo6KUBZLOie_lvJKXH-27" value="Text" style="text;html=1;align=center;verticalAlign=middle;resizable=0;points=[];autosize=1;strokeColor=none;fillColor=none;" vertex="1" parent="fYmo6KUBZLOie_lvJKXH-25">
          <mxGeometry width="50" height="30" as="geometry" />
        </mxCell>
        <mxCell id="fYmo6KUBZLOie_lvJKXH-28" value="Button" style="rounded=0;whiteSpace=wrap;html=1;" vertex="1" parent="fYmo6KUBZLOie_lvJKXH-11">
          <mxGeometry x="20" y="400" width="120" height="30" as="geometry" />
        </mxCell>
        <mxCell id="fYmo6KUBZLOie_lvJKXH-29" value="&lt;font style=&quot;font-size: 20px;&quot;&gt;&lt;b&gt;Heading&lt;/b&gt;&lt;/font&gt;&lt;br&gt;&lt;br&gt;&lt;font style=&quot;font-size: 16px;&quot;&gt;&lt;b&gt;Lorem ipsum dolor sit amet, consectetur&lt;/b&gt;&lt;/font&gt;" style="text;html=1;align=center;verticalAlign=middle;resizable=0;points=[];autosize=1;strokeColor=none;fillColor=none;" vertex="1" parent="fYmo6KUBZLOie_lvJKXH-11">
          <mxGeometry x="20" y="15" width="330" height="70" as="geometry" />
        </mxCell>
      </root>
    </mxGraphModel>
  </diagram>
</mxfile>
